<svg fill="none" xmlns="http://www.w3.org/2000/svg" viewBox="0 0 266 165"><rect x=".5" y=".5" width="265" height="164" rx="4.5" fill="#fff" stroke="#B7BBBD"></rect><path d="M19.8535 39.7949h.082L21.752 46h1.2363l2.2851-8.4551h-1.3652l-1.5469 6.4746h-.082l-1.7754-6.4746h-1.2187l-1.7637 6.4746h-.082l-1.5528-6.4746h-1.3652L16.8008 46h1.2422l1.8105-6.2051zm8.9238 6.3281c1.8633 0 3.0059-1.248 3.0059-3.3164 0-2.0566-1.1484-3.3105-3.0059-3.3105-1.8632 0-3.0117 1.2539-3.0117 3.3105 0 2.0684 1.1426 3.3164 3.0117 3.3164zm0-1.1191c-1.0957 0-1.7109-.8027-1.7109-2.1973 0-1.3828.6152-2.1914 1.7109-2.1914 1.0899 0 1.711.8086 1.711 2.1914 0 1.3887-.6211 2.1973-1.711 2.1973zM33.3008 46h1.2597v-3.7676c0-.8965.6739-1.5 1.629-1.5.2226 0 .5976.041.7031.0762v-1.2422c-.1348-.0352-.375-.0527-.5625-.0527-.8321 0-1.541.457-1.7227 1.084h-.0937v-.9786h-1.2129V46zm6.2226-3.7207h-.0996v-5.1504h-1.2597V46h1.2597v-2.2852l.5567-.5273L42.1719 46h1.5469l-2.8008-3.6445 2.625-2.7364h-1.4883l-2.5313 2.6602zm7.6465-1.7109c.9317 0 1.541.6504 1.5703 1.6523h-3.2226c.0703-.9961.7207-1.6523 1.6523-1.6523zm1.5645 3.7089c-.2344.4981-.7559.7735-1.5176.7735-1.0078 0-1.6582-.709-1.6992-1.8281v-.0704h4.5058v-.4394c0-2.0039-1.0722-3.2168-2.8476-3.2168-1.7988 0-2.9414 1.2949-2.9414 3.334 0 2.039 1.1191 3.2929 2.9472 3.2929 1.459 0 2.4786-.7031 2.7657-1.8457h-1.2129zM51.5352 46h1.2597v-3.7676c0-.8965.6739-1.5 1.6289-1.5.2227 0 .5977.041.7032.0762v-1.2422c-.1348-.0352-.375-.0527-.5625-.0527-.8321 0-1.5411.457-1.7227 1.084h-.0938v-.9786h-1.2128V46zm4.5293-4.5762c0 .9492.5625 1.4942 1.7753 1.7813l1.1133.2578c.6387.1523.9375.3984.9375.7793 0 .5098-.5566.8613-1.3418.8613-.7617 0-1.2304-.3047-1.3886-.7969h-1.2598c.1113 1.1309 1.1016 1.8164 2.6191 1.8164 1.5235 0 2.6426-.8027 2.6426-2.0039 0-.9375-.5683-1.4589-1.7812-1.7402l-1.0606-.2461c-.6914-.1582-1.0137-.3984-1.0137-.7793 0-.498.5332-.832 1.2364-.832.7148 0 1.1718.2988 1.289.7676h1.2071c-.1231-1.125-1.0606-1.793-2.4961-1.793-1.4414 0-2.4785.7969-2.4785 1.9277zM170.533 74h1.395l-3.053-8.4551h-1.412L164.41 74h1.348l.779-2.2441h3.223L170.533 74zm-2.431-6.9199h.099l1.225 3.5742h-2.555l1.231-3.5742zm10.207 2.625c-.164-1.2774-1.131-2.209-2.731-2.209-1.857 0-2.988 1.248-2.988 3.293 0 2.08 1.137 3.3339 2.994 3.3339 1.576 0 2.561-.8906 2.725-2.1738h-1.225c-.164.6856-.709 1.0488-1.506 1.0488-1.049 0-1.699-.8261-1.699-2.2089 0-1.3594.644-2.168 1.699-2.168.844 0 1.36.4629 1.506 1.084h1.225zm6.843 0c-.164-1.2774-1.131-2.209-2.73-2.209-1.858 0-2.988 1.248-2.988 3.293 0 2.08 1.136 3.3339 2.994 3.3339 1.576 0 2.56-.8906 2.724-2.1738h-1.224c-.164.6856-.709 1.0488-1.506 1.0488-1.049 0-1.699-.8261-1.699-2.2089 0-1.3594.644-2.168 1.699-2.168.844 0 1.359.4629 1.506 1.084h1.224zm4.137 4.4179c1.863 0 3.006-1.248 3.006-3.3164 0-2.0566-1.149-3.3105-3.006-3.3105-1.863 0-3.012 1.2539-3.012 3.3105 0 2.0684 1.143 3.3164 3.012 3.3164zm0-1.1191c-1.096 0-1.711-.8027-1.711-2.1973 0-1.3828.615-2.1914 1.711-2.1914 1.09 0 1.711.8086 1.711 2.1914 0 1.3887-.621 2.1973-1.711 2.1973zm9.902-5.3848h-1.259v3.7325c0 1.0019-.557 1.6054-1.577 1.6054-.925 0-1.341-.4922-1.341-1.5234v-3.8145h-1.26v4.1426c0 1.5.785 2.3613 2.197 2.3613.967 0 1.617-.4101 1.928-1.1367h.1V74h1.212v-6.3809zM201.02 74h1.259v-3.7324c0-.9961.592-1.6172 1.524-1.6172.931 0 1.377.5098 1.377 1.5351V74h1.259v-4.1309c0-1.5175-.785-2.373-2.209-2.373-.96 0-1.593.4277-1.904 1.1367h-.094v-1.0137h-1.212V74zm7.64-7.9688v1.6172h-1.014v1.0606h1.014v3.6035c0 1.2305.557 1.7227 1.957 1.7227.246 0 .481-.0293.686-.0645v-1.0488c-.176.0176-.287.0293-.481.0293-.627 0-.902-.293-.902-.961V68.709h1.383v-1.0606h-1.383v-1.6172h-1.26zM217.525 74v-8.4551h-1.312V74h1.312zm2.121-8.4551V74h3.053c2.52 0 3.979-1.5527 3.979-4.2539 0-2.6602-1.471-4.2012-3.979-4.2012h-3.053zm1.313 1.1953h1.594c1.752 0 2.789 1.1133 2.789 3.0235 0 1.9394-1.02 3.041-2.789 3.041h-1.594v-6.0645z" fill="#36393A"></path><path d="M1 5c0-2.20914 1.79086-4 4-4h256c2.209 0 4 1.79086 4 4v19H1V5z" fill="#D9D9D9"></path><circle cx="242" cy="12" r="7.5" fill="#F7F7F8" stroke="#72777B"></circle><path fill-rule="evenodd" clip-rule="evenodd" d="M18.4902 15.7188h.9086v2.4736h1.5782v.7917h-2.4868v-3.2653zM24.5115 17.3596v-.0117c0-.4714-.3378-.8788-.8386-.8788-.4951 0-.827.4016-.827.873v.0117c0 .4714.3378.8788.8328.8788.5008 0 .8328-.4015.8328-.873zm-2.5974 0v-.0117c0-.937.7571-1.6995 1.7646-1.6995 1.0075 0 1.753.7508 1.753 1.688v.0115c0 .9371-.7571 1.6996-1.7647 1.6996-1.0075 0-1.7529-.7508-1.7529-1.6879zM26.5449 17.5522v-1.8334h.9202v1.8159c0 .4715.2388.6927.5999.6927.361 0 .5998-.2154.5998-.6693v-1.8393h.9202v1.8102c0 1.0534-.5999 1.5133-1.5317 1.5133-.926 0-1.5084-.4657-1.5084-1.4901zM32.2461 18.1808c.5416 0 .9027-.2969.9027-.8265v-.0116c0-.5238-.3611-.8266-.9027-.8266h-.3669v1.6589h.3669v.0058zm-1.2754-2.462h1.258c1.1647 0 1.8461.6693 1.8461 1.6122v.0117c0 .9429-.6872 1.6414-1.8636 1.6414h-1.2405v-3.2653zM35.3906 15.7188h2.6149v.7916h-1.7122v.5587h1.5492v.7509h-1.5492v1.1641h-.9027v-3.2653zM39.2637 15.7188h.9027v2.4736h1.5841v.7917h-2.4868v-3.2653zM44.9125 17.6975l-.3611-.9254-.3669.9254h.728zm-.7979-2.0022h.8736l1.3919 3.2885h-.9726l-.2388-.582h-1.2579l-.233.582h-.9493l1.3861-3.2885zM49.0475 17.2844c.3086 0 .4834-.1513.4834-.3841v-.0116c0-.2561-.1863-.3842-.4892-.3842h-.5941v.7799h.5999zm-1.5026-1.5656h1.5433c.5009 0 .8445.128 1.0658.355.1922.1862.2912.4365.2912.7625v.0116c0 .5006-.2679.8323-.6697 1.0011l.7804 1.1408h-1.0483l-.6581-.9895h-.3961v.9895h-.9085v-3.271zM51.75 15.7188h2.6266v.7682h-1.7298v.4948h1.5667v.7159h-1.5667v.518h1.7531v.7684H51.75v-3.2653zM16.5101 17.7458c-.1281.2851-.396.4888-.7455.4888-.495 0-.8328-.4132-.8328-.8788v-.0116c0-.4715.332-.8731.827-.8731.3727 0 .6581.227.7746.5412h.9551c-.1514-.7798-.8386-1.3561-1.7239-1.3561-1.0075 0-1.7646.7625-1.7646 1.6996v.0116c0 .9371.7455 1.688 1.753 1.688.8619 0 1.5375-.5589 1.7122-1.3038l-.9551-.0058z" fill="#404242"></path><path fill-rule="evenodd" clip-rule="evenodd" d="M53.3046 10.5087l-2.4984-1.43182-.431-.18626-10.2209.06985v5.18593h13.1503v-3.6377z" fill="#fff"></path><path fill-rule="evenodd" clip-rule="evenodd" d="M48.7565 13.6697c.1224-.4191.0757-.8033-.1281-1.0885-.1863-.2619-.5009-.4133-.8794-.4307l-7.1691-.0931c-.0467 0-.0874-.0233-.1108-.0582-.0233-.0349-.0291-.0815-.0174-.128.0233-.0699.0931-.1223.1689-.1282l7.2332-.093c.8561-.0408 1.7879-.7334 2.1141-1.5832l.4135-1.07674c.0174-.04657.0232-.09313.0117-.13969-.466-2.10699-2.3471-3.67849-4.5951-3.67849-2.0733 0-3.8321 1.33869-4.461 3.19534-.4077-.30261-.9261-.46564-1.4851-.41319-.996.09894-1.7938.89634-1.8928 1.89163-.0233.25614-.0059.50634.0524.73914-1.6248.0466-2.9236 1.3737-2.9236 3.0091 0 .1455.0116.2911.0291.4366.0117.0698.0699.1223.1398.1223h13.2318c.0757 0 .1456-.0525.1689-.1281l.099-.355z" fill="#F38020"></path><path fill-rule="evenodd" clip-rule="evenodd" d="M51.0399 9.06641c-.0641 0-.134 0-.198.00582-.0466 0-.0874.03492-.1048.08148l-.2796.97199c-.1223.4191-.0757.8032.1281 1.0884.1864.262.5009.4133.8794.4307l1.5259.0932c.0466 0 .0873.0233.1106.0582s.0292.0873.0175.128c-.0233.0699-.0932.1222-.1689.1281l-1.5899.0931c-.8619.0408-1.7879.7334-2.1141 1.5832l-.1164.2968c-.0233.0582.0174.1164.0815.1164h5.4628c.0641 0 .1223-.0408.1398-.1048.0931-.3375.1456-.6926.1456-1.0593 0-2.1535-1.7588-3.91129-3.9195-3.91129z" fill="#FBAE40"></path><rect x="14" y="56" width="134" height="16" rx="4" fill="#D9D9D9"></rect><rect x="14" y="76" width="134" height="16" rx="4" fill="#D9D9D9"></rect><rect x="164" y="80" width="91" height="16" rx="4" fill="#0051C3"></rect><rect x="14" y="96" width="134" height="16" rx="4" fill="#D9D9D9"></rect><rect x="14" y="116" width="134" height="16" rx="4" fill="#D9D9D9"></rect><rect x="164" y="108" width="77" height="7" rx="3.5" fill="#D9D9D9"></rect><rect x="164" y="119" width="64" height="7" rx="3.5" fill="#D9D9D9"></rect><rect x="164" y="39" width="60" height="7" rx="3.5" fill="#D9D9D9"></rect><rect x="164" y="49" width="77" height="7" rx="3.5" fill="#D9D9D9"></rect></svg>